<svg version="1.1" id="Layer_1" xmlns="http://www.w3.org/2000/svg" xmlns:xlink="http://www.w3.org/1999/xlink" x="0px" y="0px"
	 width="100%" viewBox="0 0 165 151" enable-background="new 0 0 165 151" xml:space="preserve">
<path fill="#000000" opacity="1.000000" stroke="none" 
	d="
M1.000000,53.000000 
	C1.000000,35.333332 1.000000,18.166666 1.000000,1.000000 
	C56.000000,1.000000 111.000000,1.000000 166.000000,1.000000 
	C166.000000,51.333332 166.000000,101.666664 166.000000,152.000000 
	C111.000000,152.000000 56.000000,152.000000 1.000000,152.000000 
	C1.000000,119.166664 1.000000,86.333336 1.000000,53.000000 
M51.559696,128.895889 
	C51.655827,128.587219 51.751961,128.278534 52.160759,127.356758 
	C54.123951,125.940231 56.087143,124.523697 58.693081,122.809807 
	C64.319572,119.100288 71.225853,117.125298 75.595459,110.698357 
	C77.607292,108.769371 79.850685,107.020157 81.541611,104.842041 
	C82.511726,103.592407 82.585251,101.646729 83.731422,99.928024 
	C84.513176,98.662582 85.294922,97.397141 86.768692,96.031639 
	C88.216682,94.375610 89.664665,92.719582 91.047371,91.010109 
	C91.047371,91.010109 90.994247,91.075653 91.502861,90.873100 
	C91.760727,90.618393 92.018585,90.363693 92.815048,89.669197 
	C94.208961,86.406029 95.602875,83.142868 97.696503,80.001190 
	C101.253273,82.660202 104.810036,85.319206 108.366806,87.978218 
	C107.575684,82.712250 110.336708,76.907700 105.203049,72.379425 
	C105.157761,70.592827 105.112473,68.806221 104.960686,66.169899 
	C104.012154,62.754543 103.063622,59.339184 101.860710,55.349476 
	C101.286140,54.275761 100.711571,53.202045 100.859665,51.986145 
	C101.112373,51.424252 101.365074,50.862358 101.617783,50.300465 
	C100.377411,50.853256 99.137032,51.406052 97.301704,51.990005 
	C96.859436,52.291584 96.417160,52.593163 95.316475,53.034840 
	C94.812782,53.682602 94.309097,54.330364 93.374191,55.068249 
	C93.093086,55.236946 92.960289,55.485027 92.511795,55.998360 
	C92.511795,55.998360 92.035431,56.149784 91.449203,56.116707 
	C90.939857,56.693958 90.430511,57.271206 89.221405,57.974457 
	C85.470116,60.626247 81.718834,63.278034 77.355354,66.241829 
	C74.480057,68.425743 71.604767,70.609665 68.015015,73.336243 
	C73.922997,74.431480 78.386238,75.258881 82.656319,76.712273 
	C79.418564,80.103264 76.180809,83.494247 72.310791,86.985939 
	C71.542221,87.342369 70.773643,87.698799 69.456100,88.293686 
	C69.583710,88.729713 69.711319,89.165741 69.581215,89.407425 
	C69.581215,89.407425 69.302643,89.573425 69.302643,89.573425 
	C69.302643,89.573425 69.349724,89.893326 69.303238,89.868347 
	C69.303238,89.868347 69.186623,89.847626 68.466240,89.524559 
	C66.648827,90.352631 64.831406,91.180702 62.174488,91.924942 
	C58.100750,92.319733 54.027016,92.714523 49.951969,93.069000 
	C49.951969,93.069000 49.922127,93.041878 49.626339,92.445587 
	C47.744659,91.314331 45.862980,90.183075 43.407108,88.704559 
	C41.282478,86.783684 39.157852,84.862808 36.899761,82.251495 
	C35.610661,79.830826 34.321560,77.410149 32.992088,74.181099 
	C32.595123,68.417229 32.198154,62.653362 31.952042,56.141338 
	C33.709816,51.061230 35.467590,45.981121 37.404446,40.861961 
	C37.404446,40.861961 37.528378,40.724716 38.166512,40.389954 
	C40.803963,37.274109 43.441414,34.158264 46.641857,30.751568 
	C47.804104,29.866354 48.966354,28.981140 50.714325,27.767902 
	C53.168705,25.861839 55.623081,23.955776 58.741322,22.019543 
	C59.858212,21.420490 60.975101,20.821440 62.694397,20.081131 
	C63.175564,19.755325 63.656727,19.429520 64.060219,19.100632 
	C64.060219,19.100632 64.079109,19.176043 64.729431,19.058186 
	C65.842911,18.442741 66.956398,17.827295 68.837662,17.064409 
	C73.225304,15.631604 77.612946,14.198798 82.733475,12.896756 
	C84.156326,12.539184 85.579170,12.181610 87.852051,11.944195 
	C89.671303,11.880142 91.693054,12.280535 93.245193,11.603824 
	C94.468033,11.070682 95.245651,9.271235 95.881432,7.879149 
	C95.986839,7.648344 94.357712,6.062573 93.517853,6.051691 
	C86.672325,5.962989 79.823868,6.099895 72.222153,6.041340 
	C71.466988,6.094826 70.711830,6.148313 69.231194,6.102524 
	C68.165024,6.363204 67.098854,6.623885 65.287331,6.952585 
	C64.508545,7.593681 63.729759,8.234778 62.125145,8.948259 
	C61.359966,8.728681 60.594788,8.509103 59.426441,7.963676 
	C58.640205,8.386236 57.853966,8.808797 56.293255,9.125951 
	C51.853077,10.751410 47.412903,12.376870 42.336590,14.236234 
	C38.824257,16.510689 35.311924,18.785145 31.243378,21.354830 
	C28.556248,24.922192 25.869118,28.489555 22.564564,32.328033 
	C21.703871,33.541946 20.843178,34.755856 19.988188,35.987801 
	C19.988188,35.987801 19.970098,35.990955 19.449778,36.323746 
	C19.059929,37.225376 18.670080,38.127003 18.203043,39.702229 
	C18.181555,40.154388 18.160067,40.606544 17.694580,41.108093 
	C17.128458,41.731693 16.562334,42.355293 15.570247,43.215652 
	C15.304559,43.420753 15.119310,43.682735 14.939980,44.444920 
	C14.939980,44.444920 14.808550,44.874832 14.305833,45.329411 
	C13.450565,47.052017 11.686370,48.893631 14.907683,50.785366 
	C14.905929,51.488289 14.904174,52.191208 14.147291,53.030846 
	C13.051032,54.975456 11.189651,56.843548 10.986239,58.877453 
	C9.899034,69.748383 11.660515,80.062767 18.258791,89.859238 
	C20.243708,92.598671 22.039652,95.502701 24.252670,98.043457 
	C28.936583,103.421043 36.574318,106.938652 35.024723,116.701103 
	C34.734108,117.806000 34.443493,118.910896 34.010593,120.719673 
	C33.987755,121.437263 33.964916,122.154854 33.315937,123.213539 
	C32.189064,125.791092 31.062187,128.368652 29.381971,131.168961 
	C28.967562,131.778412 28.553152,132.387863 27.882959,133.620789 
	C27.606014,134.425781 27.329069,135.230789 27.068499,135.997879 
	C27.068499,135.997879 27.031651,135.979218 26.456522,136.125549 
	C26.233566,136.446930 26.010612,136.768311 25.430479,137.213013 
	C25.214155,137.364609 25.084097,137.570618 24.334377,138.058212 
	C23.982567,138.872757 23.630756,139.687286 23.278944,140.501831 
	C24.054338,140.618774 24.859859,140.923599 25.597534,140.805313 
	C26.529406,140.655899 27.405993,140.161682 28.905931,139.971619 
	C29.644886,139.305466 30.383842,138.639313 31.833975,137.984894 
	C32.539436,137.928070 33.244900,137.871246 34.711201,137.966415 
	C39.807285,135.882355 45.513779,134.853668 49.544369,129.947021 
	C50.055546,129.649445 50.566727,129.351883 50.999649,129.014923 
	C50.999649,129.014923 51.065727,129.073151 51.559696,128.895889 
M80.626472,128.933899 
	C81.093292,128.672272 81.560112,128.410629 82.099625,128.176865 
	C82.099625,128.176865 82.172745,128.150116 82.831703,127.956635 
	C84.593079,126.930916 86.354454,125.905190 89.013901,124.960411 
	C93.338745,124.584518 97.663597,124.208626 102.704750,123.947388 
	C103.425766,123.897675 104.146782,123.847961 105.519707,123.824203 
	C110.328072,121.839294 115.136429,119.854393 120.714752,117.937958 
	C122.816795,116.970810 124.918846,116.003670 127.368080,114.692207 
	C127.591629,114.454033 127.796059,114.200447 128.562866,113.744255 
	C129.353394,113.114410 130.143921,112.484573 131.472839,111.779312 
	C132.036575,110.537132 132.600327,109.294960 133.570435,108.418770 
	C135.124191,108.046394 137.153595,108.162064 138.136597,107.204041 
	C140.465469,104.934334 142.794815,102.403885 144.232254,99.532455 
	C147.757187,92.491058 150.778229,85.197418 154.053360,77.165611 
	C153.517365,69.890358 153.438782,62.537788 152.228470,55.376499 
	C151.718216,52.357338 148.821121,49.741573 146.492706,46.748577 
	C146.014786,46.473316 145.536850,46.198055 145.211868,45.364227 
	C143.491653,42.890751 141.771454,40.417274 140.000580,37.962471 
	C140.000580,37.962471 140.050903,37.981888 139.814209,37.517899 
	C139.560303,37.281960 139.306396,37.046021 138.781204,36.282784 
	C137.919266,35.487617 137.057312,34.692451 135.825043,33.319080 
	C133.852463,32.296841 131.879868,31.274597 129.562836,29.665443 
	C127.364037,28.524986 125.165237,27.384529 122.382217,25.804926 
	C120.604599,25.199795 118.826981,24.594664 116.758392,23.388680 
	C115.899803,23.193907 115.041222,22.999132 113.753372,22.169922 
	C109.155556,21.741074 104.557747,21.312225 99.103989,20.965828 
	C96.077042,20.703430 93.050087,20.441032 89.282936,20.381998 
	C86.516029,20.938145 83.749115,21.494291 80.344330,21.982407 
	C79.819351,22.296457 79.294365,22.610508 78.176979,22.927229 
	C77.783379,22.955770 77.389771,22.984314 76.379303,23.022186 
	C76.225250,23.324707 76.071190,23.627226 75.774658,23.729618 
	C75.774658,23.729618 75.560150,23.849367 74.831612,23.794724 
	C69.821579,25.795158 64.093857,26.591331 60.447178,32.258499 
	C56.752914,35.186069 53.018406,38.064651 49.376904,41.056438 
	C46.369488,43.527271 46.518883,46.243073 49.108349,49.376755 
	C50.520161,48.629066 51.874329,48.061031 53.065540,47.252819 
	C56.504620,44.919472 59.689438,42.128448 63.341400,40.220020 
	C65.914558,38.875347 69.087212,38.677879 72.818871,37.982719 
	C76.586082,36.987183 80.314278,35.376865 84.129295,35.134811 
	C90.441879,34.734291 96.487450,35.391655 102.857430,37.620506 
	C110.251671,40.207741 117.691513,42.161037 124.150360,47.670612 
	C126.094276,50.465302 128.038193,53.259995 130.313293,56.648369 
	C136.249939,63.323219 135.681992,71.098557 134.040176,79.710014 
	C133.679642,80.500023 133.319122,81.290039 132.617859,82.312592 
	C132.403885,82.490654 132.231323,82.702461 132.056305,83.438087 
	C132.056305,83.438087 131.990250,83.925674 131.554642,84.196701 
	C131.361771,84.475174 131.168915,84.753639 131.002930,85.705658 
	C131.006729,86.154991 131.010544,86.604317 130.410339,87.351303 
	C128.953995,89.579002 127.497665,91.806702 125.471306,94.371422 
	C124.292152,95.891891 123.113007,97.412369 121.240463,99.013084 
	C120.122101,99.957573 119.003731,100.902061 117.117905,101.882492 
	C114.089088,103.261559 111.060280,104.640617 108.003937,106.000885 
	C108.003937,106.000885 108.006714,106.024841 107.569603,106.261368 
	C107.286339,106.440903 107.037079,106.659264 106.258606,106.887352 
	C105.883186,106.905083 105.507774,106.922821 104.799545,106.595688 
	C104.562378,106.379570 104.299606,106.201195 103.351082,106.078049 
	C102.252190,107.400436 101.153297,108.722816 99.143288,110.036301 
	C93.678650,110.273239 87.486771,108.106728 83.327812,114.995621 
	C81.158760,117.585297 78.989716,120.174973 76.405754,122.861008 
	C76.405754,122.861008 75.994453,122.971794 75.341133,123.018158 
	C74.654541,123.744225 73.967957,124.470291 72.670235,125.512344 
	C66.993286,129.451462 61.316338,133.390579 55.639393,137.329697 
	C55.904373,137.879974 56.169357,138.430267 56.434338,138.980545 
	C60.966457,137.738815 65.627037,136.828461 69.985580,135.138977 
	C72.895554,134.010986 75.375618,131.773926 78.492096,130.050262 
	C78.492096,130.050262 78.937073,130.052002 79.436859,129.847519 
	C79.646812,129.564285 79.856758,129.281052 80.626472,128.933899 
M101.928909,9.344158 
	C100.470116,8.915373 99.011314,8.486588 97.552521,8.057802 
	C97.411964,8.508221 97.271408,8.958640 97.130852,9.409060 
	C99.385918,10.151831 101.640984,10.894602 103.896049,11.637374 
	C104.038208,11.204183 104.180367,10.770991 104.322525,10.337801 
	C103.700668,10.161080 103.078812,9.984361 101.928909,9.344158 
z"/>
<path fill="#150920" opacity="1.000000" stroke="none" 
	d="
M18.292181,89.131538 
	C11.660515,80.062767 9.899034,69.748383 10.986239,58.877453 
	C11.189651,56.843548 13.051032,54.975456 14.555748,53.389587 
	C14.981149,55.161438 14.998093,56.574554 15.010265,58.447914 
	C13.994544,73.009499 18.382826,75.213989 26.406292,78.072411 
	C27.046375,78.576187 27.462887,78.925262 27.925129,79.616226 
	C29.998617,82.959641 32.026379,85.961151 34.238609,89.246788 
	C37.823792,91.444038 41.305805,93.230995 44.579773,95.340805 
	C45.680840,96.050339 46.252964,97.580688 46.618355,98.806328 
	C43.457508,98.840797 40.745148,98.804817 37.915894,98.489403 
	C37.126621,97.842926 36.454243,97.475891 35.388451,97.085670 
	C29.427414,94.418839 23.859797,91.775192 18.292181,89.131538 
M15.509406,80.471367 
	C15.509406,80.471367 15.526413,80.519409 15.509406,80.471367 
z"/>
<path fill="#1A1B1B" opacity="1.000000" stroke="none" 
	d="
M124.017410,46.991604 
	C117.691513,42.161037 110.251671,40.207741 102.857430,37.620506 
	C96.487450,35.391655 90.441879,34.734291 84.129295,35.134811 
	C80.314278,35.376865 76.586082,36.987183 72.146591,37.766869 
	C69.973289,35.587543 68.472260,33.624062 67.292633,31.472752 
	C73.066864,30.458014 78.519699,29.631107 84.418388,28.862450 
	C87.256775,28.907125 89.649315,28.893555 92.339363,29.049179 
	C93.744804,29.372169 94.852730,29.525967 96.353943,29.780872 
	C99.148209,30.313572 101.549187,30.745159 104.259201,31.374052 
	C106.013588,31.874111 107.458946,32.176865 109.181549,32.646832 
	C110.935394,33.292156 112.412010,33.770271 114.146011,34.461601 
	C115.847916,35.191940 117.292419,35.709068 118.948479,36.485542 
	C121.084442,37.853493 123.008850,38.962097 125.133934,40.331573 
	C126.878761,41.426067 128.422913,42.259693 130.126526,43.341774 
	C130.876938,44.382912 131.467911,45.175602 131.689117,46.124008 
	C128.885376,46.517017 126.451393,46.754311 124.017410,46.991604 
z"/>
<path fill="#0B0A0B" opacity="1.000000" stroke="none" 
	d="
M154.002014,78.005272 
	C150.778229,85.197418 147.757187,92.491058 144.232254,99.532455 
	C142.794815,102.403885 140.465469,104.934334 138.136597,107.204041 
	C137.153595,108.162064 135.124191,108.046394 133.468323,107.974319 
	C133.625931,107.031731 133.885635,106.533585 134.386856,105.845718 
	C135.413040,104.440079 136.197708,103.224159 137.062637,101.664276 
	C137.781387,99.553436 138.419891,97.786560 139.260254,95.675987 
	C139.968277,89.223328 140.474411,83.114365 140.985565,76.601059 
	C140.657806,74.133705 140.325058,72.070679 140.404144,69.995834 
	C143.558289,69.649086 146.300583,69.314178 149.256866,69.163689 
	C150.608810,69.067085 151.746765,68.786057 152.560532,68.585091 
	C152.994324,71.419975 153.498184,74.712624 154.002014,78.005272 
z"/>
<path fill="#893594" opacity="1.000000" stroke="none" 
	d="
M18.275486,89.495392 
	C23.859797,91.775192 29.427414,94.418839 35.527580,97.361008 
	C36.717686,98.029289 37.375237,98.399063 38.032787,98.768837 
	C40.745148,98.804817 43.457508,98.840797 46.557411,98.906616 
	C46.944950,98.936447 46.895191,99.165810 46.764572,99.323799 
	C46.447613,99.683800 46.239967,99.860817 45.684269,100.085114 
	C42.211449,101.372688 41.704880,103.050659 44.103302,105.665634 
	C47.175617,109.015335 50.045223,112.550964 52.988403,116.238220 
	C52.974632,116.469963 52.952942,116.933754 52.595680,116.976250 
	C50.828953,117.306046 49.419483,117.593353 47.890541,117.577209 
	C44.612373,114.898689 41.453678,112.523621 38.487717,110.293480 
	C37.035381,112.785851 36.097057,114.396118 35.158730,116.006393 
	C36.574318,106.938652 28.936583,103.421043 24.252670,98.043457 
	C22.039652,95.502701 20.243708,92.598671 18.275486,89.495392 
z"/>
<path fill="#541E6E" opacity="1.000000" stroke="none" 
	d="
M82.849480,76.086288 
	C78.386238,75.258881 73.922997,74.431480 68.015015,73.336243 
	C71.604767,70.609665 74.480057,68.425743 77.799385,66.375809 
	C79.441750,66.666840 80.639961,66.956467 81.838448,66.957611 
	C86.585258,66.962158 91.332161,66.876411 96.227646,67.003433 
	C96.586769,67.410477 96.807724,67.627563 97.001877,68.253128 
	C96.647285,71.775291 96.329956,74.878349 95.668427,78.130447 
	C92.758293,77.857414 90.189560,77.451553 87.627464,77.007324 
	C86.029610,76.730270 84.441795,76.395279 82.849480,76.086288 
z"/>
<path fill="#673190" opacity="1.000000" stroke="none" 
	d="
M82.000595,12.765995 
	C77.612946,14.198798 73.225304,15.631604 68.395584,16.758461 
	C66.302498,15.635444 64.651474,14.818376 62.999832,13.575016 
	C62.983135,11.724440 62.967056,10.300158 62.950974,8.875875 
	C63.729759,8.234778 64.508545,7.593681 65.672318,6.943489 
	C66.057304,6.934393 66.006599,6.949094 66.307892,7.168870 
	C68.737946,7.242697 70.866707,7.096748 72.991791,6.755112 
	C72.988121,6.559426 72.976303,6.168162 72.976303,6.168162 
	C79.823868,6.099895 86.672325,5.962989 93.517853,6.051691 
	C94.357712,6.062573 95.986839,7.648344 95.881432,7.879149 
	C95.245651,9.271235 94.468033,11.070682 93.245193,11.603824 
	C91.693054,12.280535 89.671303,11.880142 87.416023,11.540271 
	C86.472588,10.258376 85.965187,9.380405 85.457779,8.502436 
	C84.305389,9.923624 83.152992,11.344810 82.000595,12.765995 
M72.504242,12.393437 
	C72.318962,12.700552 72.133682,13.007666 71.948395,13.314778 
	C72.214516,13.391154 72.480629,13.467529 72.746750,13.543904 
	C72.795959,13.195333 72.845169,12.846761 72.504242,12.393437 
z"/>
<path fill="#4A1864" opacity="1.000000" stroke="none" 
	d="
M82.752899,76.399277 
	C84.441795,76.395279 86.029610,76.730270 87.627464,77.007324 
	C90.189560,77.451553 92.758293,77.857414 95.855042,78.330902 
	C96.589500,78.881439 96.793144,79.380569 96.996788,79.879700 
	C95.602875,83.142868 94.208961,86.406029 92.310944,90.019211 
	C91.535980,90.604706 91.265114,90.840179 90.994247,91.075653 
	C90.994247,91.075653 91.047371,91.010109 90.714081,91.040314 
	C84.614517,93.229973 82.855339,86.489822 78.455582,86.581070 
	C76.618073,86.682457 74.780563,86.783844 72.943054,86.885231 
	C76.180809,83.494247 79.418564,80.103264 82.752899,76.399277 
z"/>
<path fill="#111212" opacity="1.000000" stroke="none" 
	d="
M66.971237,31.660583 
	C68.472260,33.624062 69.973289,35.587543 71.733261,37.759613 
	C69.087212,38.677879 65.914558,38.875347 63.341400,40.220020 
	C59.689438,42.128448 56.504620,44.919472 53.065540,47.252819 
	C51.874329,48.061031 50.520161,48.629066 49.108349,49.376755 
	C46.518883,46.243073 46.369488,43.527271 49.376904,41.056438 
	C53.018406,38.064651 56.752914,35.186069 61.193390,32.119408 
	C63.616810,31.873739 65.294022,31.767160 66.971237,31.660583 
z"/>
<path fill="#C070C0" opacity="1.000000" stroke="none" 
	d="
M48.876801,129.773224 
	C45.513779,134.853668 39.807285,135.882355 34.324242,137.589722 
	C33.941879,136.812119 33.946476,136.411224 34.267521,135.896286 
	C36.142097,134.457352 37.700226,133.132446 39.997005,131.179459 
	C38.312431,128.710754 36.691231,126.334938 34.810768,123.979111 
	C34.379482,124.020523 34.207455,124.041924 34.011948,123.765610 
	C33.973007,123.269417 33.957542,123.070930 33.942078,122.872444 
	C33.964916,122.154854 33.987755,121.437263 34.515606,120.359512 
	C39.015289,119.645851 43.009964,119.292351 47.026073,119.319809 
	C48.359341,122.457306 49.671169,125.213860 50.977451,128.248062 
	C51.003178,128.708176 51.034451,128.890656 51.065727,129.073151 
	C51.065727,129.073151 50.999649,129.014923 50.744045,129.072220 
	C49.951229,129.344086 49.414017,129.558655 48.876801,129.773224 
z"/>
<path fill="#68257C" opacity="1.000000" stroke="none" 
	d="
M63.013985,92.008774 
	C64.831406,91.180702 66.648827,90.352631 68.494736,90.046539 
	C68.783897,92.625305 68.401146,95.129662 69.450333,96.637917 
	C71.187668,99.135414 73.847244,100.991386 75.984756,103.428062 
	C72.246773,105.543816 68.642281,107.349167 64.956917,108.801453 
	C62.208012,104.532478 59.539986,100.616554 57.132679,96.492004 
	C59.266930,94.858513 61.140457,93.433640 63.013985,92.008774 
z"/>
<path fill="#242323" opacity="1.000000" stroke="none" 
	d="
M154.027695,77.585442 
	C153.498184,74.712624 152.994324,71.419975 152.560532,68.585091 
	C151.746765,68.786057 150.608810,69.067085 149.110397,68.856445 
	C147.520660,66.224762 146.291382,64.084747 144.980072,61.626953 
	C143.944031,59.864944 142.990036,58.420704 141.903076,56.689369 
	C141.507248,55.604988 141.244370,54.807697 141.335541,53.934711 
	C145.108673,52.819370 148.633484,51.861019 147.008987,46.942436 
	C148.821121,49.741573 151.718216,52.357338 152.228470,55.376499 
	C153.438782,62.537788 153.517365,69.890358 154.027695,77.585442 
z"/>
<path fill="#210B36" opacity="1.000000" stroke="none" 
	d="
M134.145340,106.035446 
	C133.885635,106.533585 133.625931,107.031731 133.265152,107.791336 
	C132.600327,109.294960 132.036575,110.537132 131.030853,111.592499 
	C127.073372,109.515678 128.476562,112.703468 127.981377,113.931458 
	C127.796059,114.200447 127.591629,114.454033 126.822632,114.778854 
	C124.526726,114.577812 122.776268,114.290131 121.010162,113.597504 
	C119.971886,110.477287 118.949257,107.762024 117.585892,105.105270 
	C115.493675,105.815552 113.742188,106.467316 111.716461,106.902061 
	C110.305305,106.463264 109.168388,106.241478 108.031471,106.019684 
	C111.060280,104.640617 114.089088,103.261559 117.839569,101.850540 
	C119.716408,101.212830 120.871582,100.607086 122.387253,100.028137 
	C124.214066,100.970726 125.626709,101.991089 127.159309,102.777733 
	C129.443573,103.950180 131.812454,104.957726 134.145340,106.035446 
z"/>
<path fill="#5D2175" opacity="1.000000" stroke="none" 
	d="
M97.346649,79.940445 
	C96.793144,79.380569 96.589500,78.881439 96.199249,78.181854 
	C96.329956,74.878349 96.647285,71.775291 97.347366,68.328560 
	C100.198341,69.656654 102.666550,71.328423 105.134766,73.000198 
	C110.336708,76.907700 107.575684,82.712250 108.366806,87.978218 
	C104.810036,85.319206 101.253273,82.660202 97.346649,79.940445 
z"/>
<path fill="#140521" opacity="1.000000" stroke="none" 
	d="
M140.980560,77.005402 
	C140.474411,83.114365 139.968277,89.223328 138.899567,95.598923 
	C135.552795,94.908699 132.768585,93.951843 130.133713,92.646652 
	C130.526810,90.550102 130.770584,88.801880 131.014343,87.053650 
	C131.010544,86.604317 131.006729,86.154991 131.183411,85.208015 
	C131.572662,84.448807 131.781448,84.187241 131.990234,83.925674 
	C131.990250,83.925674 132.056305,83.438087 132.237625,83.066284 
	C132.622925,82.510841 132.802811,82.306030 132.958603,82.080055 
	C133.319122,81.290039 133.679642,80.500023 134.455276,79.366638 
	C136.907104,78.350639 138.943832,77.678017 140.980560,77.005402 
z"/>
<path fill="#561A6D" opacity="1.000000" stroke="none" 
	d="
M72.626923,86.935585 
	C74.780563,86.783844 76.618073,86.682457 78.455582,86.581070 
	C82.855339,86.489822 84.614517,93.229973 90.746719,91.067032 
	C89.664665,92.719582 88.216682,94.375610 86.189789,95.909637 
	C83.786018,96.551590 81.961151,97.315544 80.055214,98.113441 
	C76.510445,95.391617 72.930084,92.642471 69.349724,89.893326 
	C69.349724,89.893326 69.302643,89.573425 69.302643,89.573425 
	C69.302643,89.573425 69.581215,89.407425 69.760040,89.118179 
	C69.960938,88.571030 69.983002,88.313126 70.005066,88.055222 
	C70.773643,87.698799 71.542221,87.342369 72.626923,86.935585 
z"/>
<path fill="#343637" opacity="1.000000" stroke="none" 
	d="
M78.048080,130.033218 
	C75.375618,131.773926 72.895554,134.010986 69.985580,135.138977 
	C65.627037,136.828461 60.966457,137.738815 56.434338,138.980545 
	C56.169357,138.430267 55.904373,137.879974 55.639393,137.329697 
	C61.316338,133.390579 66.993286,129.451462 73.240784,125.338623 
	C74.170364,125.162338 74.529396,125.159782 74.975998,125.450165 
	C75.709793,126.495399 76.356018,127.247704 77.116409,128.261856 
	C77.503090,129.026886 77.775581,129.530045 78.048080,130.033218 
z"/>
<path fill="#1D0A30" opacity="1.000000" stroke="none" 
	d="
M15.015036,57.987667 
	C14.998093,56.574554 14.981149,55.161438 14.933312,53.321228 
	C14.904174,52.191208 14.905929,51.488289 14.943185,49.998344 
	C14.921974,47.765827 14.865262,46.320328 14.808550,44.874832 
	C14.808550,44.874832 14.939980,44.444920 15.151877,44.063877 
	C15.589920,43.461967 15.800733,43.227318 15.996212,42.978893 
	C16.562334,42.355293 17.128458,41.731693 18.175142,41.269310 
	C20.099314,43.621716 21.542923,45.812901 22.983969,48.377892 
	C22.969038,49.499527 22.956673,50.247360 22.623053,51.157291 
	C19.689301,55.567741 20.923780,58.705410 25.131386,61.199291 
	C25.167450,61.403481 25.212858,61.815689 25.121359,62.173290 
	C24.939928,63.014717 24.849997,63.498547 24.427933,63.957008 
	C22.396843,63.287411 20.697886,62.643177 18.922121,61.670731 
	C17.568552,60.224232 16.291794,59.105949 15.015036,57.987667 
z"/>
<path fill="#3E1354" opacity="1.000000" stroke="none" 
	d="
M24.760067,63.982372 
	C24.849997,63.498547 24.939928,63.014717 25.413662,62.175713 
	C27.798704,60.176853 29.799948,58.533176 31.801189,56.889496 
	C32.198154,62.653362 32.595123,68.417229 32.782814,74.832008 
	C31.008825,76.746727 29.444111,78.010529 27.879398,79.274338 
	C27.462887,78.925262 27.046375,78.576187 26.359913,77.666176 
	C25.661972,74.085167 25.233982,71.065102 24.845699,67.639267 
	C24.843628,66.149796 24.801847,65.066086 24.760067,63.982372 
z"/>
<path fill="#161516" opacity="1.000000" stroke="none" 
	d="
M140.981491,54.010406 
	C141.244370,54.807697 141.507248,55.604988 141.533646,56.768871 
	C139.197983,57.755196 137.098801,58.374920 134.737656,58.814644 
	C132.977829,57.774658 131.479980,56.914669 129.982117,56.054680 
	C128.038193,53.259995 126.094276,50.465302 124.083885,47.331108 
	C126.451393,46.754311 128.885376,46.517017 131.936462,46.246338 
	C133.044281,46.469418 133.534958,46.725880 134.179413,47.248772 
	C135.228577,48.340561 136.124008,49.165928 137.182159,50.262802 
	C138.557083,51.693008 139.769287,52.851707 140.981491,54.010406 
z"/>
<path fill="#1A1B1B" opacity="1.000000" stroke="none" 
	d="
M76.820671,122.764656 
	C78.989716,120.174973 81.158760,117.585297 83.948807,115.041794 
	C86.766006,116.600647 88.962212,118.113335 91.072029,119.926193 
	C90.029022,121.777397 89.072418,123.328423 88.115814,124.879456 
	C86.354454,125.905190 84.593079,126.930916 82.431229,127.682037 
	C80.294060,125.859840 78.557365,124.312248 76.820671,122.764656 
z"/>
<path fill="#9B48A4" opacity="1.000000" stroke="none" 
	d="
M52.952942,116.933754 
	C52.952942,116.933754 52.974632,116.469963 53.265175,116.182358 
	C54.039333,115.621216 54.522949,115.347672 55.354298,115.040039 
	C57.141098,114.359985 58.580162,113.714005 60.341785,113.045975 
	C61.093445,112.984436 61.522541,112.944931 62.280567,112.995827 
	C65.903572,115.585808 68.287460,113.569534 70.905167,111.660774 
	C71.916039,110.923683 73.575302,111.075813 74.939171,110.822830 
	C71.225853,117.125298 64.319572,119.100288 58.216553,122.643242 
	C56.144329,120.629036 54.548634,118.781395 52.952942,116.933754 
z"/>
<path fill="#61318B" opacity="1.000000" stroke="none" 
	d="
M62.538063,8.912067 
	C62.967056,10.300158 62.983135,11.724440 63.089661,13.870962 
	C63.479774,16.120815 63.779442,17.648428 64.079109,19.176043 
	C64.079109,19.176043 64.060219,19.100632 63.800392,19.154404 
	C63.057705,19.546247 62.574848,19.884319 62.091991,20.222389 
	C60.975101,20.821440 59.858212,21.420490 58.062622,21.875801 
	C54.929306,20.583052 50.882294,21.582815 51.223434,16.753359 
	C54.321331,14.345345 57.177448,12.171472 60.004242,9.567993 
	C59.926487,8.855433 59.878048,8.572479 59.829609,8.289524 
	C60.594788,8.509103 61.359966,8.728681 62.538063,8.912067 
z"/>
<path fill="#481F67" opacity="1.000000" stroke="none" 
	d="
M46.078865,31.042419 
	C43.441414,34.158264 40.803963,37.274109 37.532124,40.285446 
	C34.926922,38.451962 32.956112,36.722988 31.058146,34.664696 
	C31.458239,33.260216 31.785486,32.185059 32.398071,30.990450 
	C33.463505,29.920881 34.243603,28.970762 35.272873,28.020536 
	C35.522041,28.020430 36.020378,28.020285 36.199905,28.304380 
	C39.612579,29.406456 42.845722,30.224436 46.078865,31.042419 
z"/>
<path fill="#575858" opacity="1.000000" stroke="none" 
	d="
M108.904312,32.479618 
	C107.458946,32.176865 106.013588,31.874111 104.204567,30.996964 
	C102.547249,27.242838 101.253593,24.063108 99.959930,20.883377 
	C104.557747,21.312225 109.155556,21.741074 113.923599,22.535385 
	C114.093834,22.900846 114.004372,22.995350 113.669617,23.049526 
	C112.678444,23.691055 111.709007,24.155962 111.422638,24.888063 
	C110.452759,27.367559 109.724747,29.941666 108.904312,32.479618 
z"/>
<path fill="#575858" opacity="1.000000" stroke="none" 
	d="
M67.292633,31.472752 
	C65.294022,31.767160 63.616810,31.873739 61.520546,31.978828 
	C64.093857,26.591331 69.821579,25.795158 75.521439,24.046957 
	C78.798355,25.800859 81.385445,27.302528 83.972542,28.804199 
	C78.519699,29.631107 73.066864,30.458014 67.292633,31.472752 
z"/>
<path fill="#944BA4" opacity="1.000000" stroke="none" 
	d="
M105.168907,72.689812 
	C102.666550,71.328423 100.198341,69.656654 97.384628,67.909439 
	C96.807724,67.627563 96.586769,67.410477 96.125977,66.687500 
	C93.890846,63.410995 91.906006,60.629723 89.921173,57.848454 
	C90.430511,57.271206 90.939857,56.693958 91.857109,56.321190 
	C92.471909,56.742226 92.716927,56.899315 93.312874,57.152512 
	C96.040115,58.233147 98.454559,59.158218 100.905762,60.456673 
	C102.089134,63.045361 100.347565,67.185326 105.067184,67.019623 
	C105.112473,68.806221 105.157761,70.592827 105.168907,72.689812 
z"/>
<path fill="#893595" opacity="1.000000" stroke="none" 
	d="
M75.267319,110.760590 
	C73.575302,111.075813 71.916039,110.923683 70.905167,111.660774 
	C68.287460,113.569534 65.903572,115.585808 62.467983,112.746780 
	C63.230247,111.323059 64.134018,110.238785 65.037796,109.154510 
	C68.642281,107.349167 72.246773,105.543816 76.280899,103.255371 
	C78.827835,101.852974 80.945114,100.933678 83.062401,100.014389 
	C82.585251,101.646729 82.511726,103.592407 81.541611,104.842041 
	C79.850685,107.020157 77.607292,108.769371 75.267319,110.760590 
z"/>
<path fill="#5D2073" opacity="1.000000" stroke="none" 
	d="
M83.396912,99.971207 
	C80.945114,100.933678 78.827835,101.852974 76.414398,102.944962 
	C73.847244,100.991386 71.187668,99.135414 69.450333,96.637917 
	C68.401146,95.129662 68.783897,92.625305 68.854935,90.208076 
	C69.186623,89.847626 69.303238,89.868347 69.326477,89.880836 
	C72.930084,92.642471 76.510445,95.391617 80.055214,98.113441 
	C81.961151,97.315544 83.786018,96.551590 85.843773,95.959663 
	C85.294922,97.397141 84.513176,98.662582 83.396912,99.971207 
z"/>
<path fill="#37195C" opacity="1.000000" stroke="none" 
	d="
M36.020378,28.020283 
	C36.020378,28.020285 35.522041,28.020430 35.117916,27.774237 
	C34.143604,27.017582 33.573414,26.507120 32.998512,25.625229 
	C32.595726,23.855732 32.197659,22.457664 31.799589,21.059601 
	C35.311924,18.785145 38.824257,16.510689 42.868637,14.356363 
	C43.922054,16.312498 44.443428,18.148502 44.720253,20.131901 
	C43.980099,20.849268 43.484493,21.419243 42.707462,22.159746 
	C40.290813,24.226944 38.155594,26.123613 36.020378,28.020283 
z"/>
<path fill="#5D2F7D" opacity="1.000000" stroke="none" 
	d="
M88.564857,124.919930 
	C89.072418,123.328423 90.029022,121.777397 91.404877,119.813286 
	C93.875420,117.581429 95.926727,115.762650 98.059654,114.289452 
	C99.423660,117.700935 100.706047,120.766838 101.988441,123.832748 
	C97.663597,124.208626 93.338745,124.584518 88.564857,124.919930 
z"/>
<path fill="#65277C" opacity="1.000000" stroke="none" 
	d="
M31.876616,56.515419 
	C29.799948,58.533176 27.798704,60.176853 25.505161,61.818111 
	C25.212858,61.815689 25.167450,61.403481 25.291203,60.883728 
	C25.691292,58.987392 25.967625,57.610813 26.436676,55.936447 
	C28.483074,51.815632 30.336756,47.992599 32.460178,43.972805 
	C34.228401,42.817699 35.726883,41.859356 37.225365,40.901009 
	C35.467590,45.981121 33.709816,51.061230 31.876616,56.515419 
z"/>
<path fill="#0D0218" opacity="1.000000" stroke="none" 
	d="
M130.147705,56.351524 
	C131.479980,56.914669 132.977829,57.774658 134.804688,59.153423 
	C136.084595,61.450165 137.035507,63.228134 138.053864,65.343384 
	C138.744980,67.122993 139.368637,68.565323 139.992294,70.007660 
	C140.325058,72.070679 140.657806,74.133705 140.985565,76.601059 
	C138.943832,77.678017 136.907104,78.350639 134.486420,79.034142 
	C135.681992,71.098557 136.249939,63.323219 130.147705,56.351524 
z"/>
<path fill="#2C1547" opacity="1.000000" stroke="none" 
	d="
M31.521484,21.207214 
	C32.197659,22.457664 32.595726,23.855732 32.683151,25.653889 
	C28.593266,27.549555 31.822861,29.405249 32.112736,31.109900 
	C31.785486,32.185059 31.458239,33.260216 30.797237,34.842407 
	C29.330091,36.563438 28.196701,37.777439 26.781555,38.822987 
	C25.662987,37.432835 24.826176,36.211136 23.978582,34.676399 
	C23.705864,33.594543 23.443926,32.825733 23.181990,32.056919 
	C25.869118,28.489555 28.556248,24.922192 31.521484,21.207214 
z"/>
<path fill="#3E3E3F" opacity="1.000000" stroke="none" 
	d="
M124.933258,40.070702 
	C123.008850,38.962097 121.084442,37.853493 119.300598,36.326977 
	C123.375145,33.693699 123.065224,29.930380 122.966438,26.244072 
	C125.165237,27.384529 127.364037,28.524986 129.748047,30.319761 
	C128.266602,34.006287 126.599930,37.038494 124.933258,40.070702 
z"/>
<path fill="#0E1011" opacity="1.000000" stroke="none" 
	d="
M97.978027,113.943878 
	C95.926727,115.762650 93.875420,117.581429 91.491272,119.513107 
	C88.962212,118.113335 86.766006,116.600647 84.248619,114.864182 
	C87.486771,108.106728 93.678650,110.273239 99.475266,110.295456 
	C99.556816,111.057472 99.306381,111.560318 98.898926,112.287308 
	C98.487274,112.988914 98.232651,113.466393 97.978027,113.943878 
z"/>
<path fill="#833A97" opacity="1.000000" stroke="none" 
	d="
M89.571289,57.911453 
	C91.906006,60.629723 93.890846,63.410995 95.977356,66.508202 
	C91.332161,66.876411 86.585258,66.962158 81.838448,66.957611 
	C80.639961,66.956467 79.441750,66.666840 78.105484,66.219803 
	C81.718834,63.278034 85.470116,60.626247 89.571289,57.911453 
z"/>
<path fill="#250E32" opacity="1.000000" stroke="none" 
	d="
M47.005898,98.836166 
	C46.252964,97.580688 45.680840,96.050339 44.579773,95.340805 
	C41.305805,93.230995 37.823792,91.444038 34.533104,89.152893 
	C35.439827,86.830566 36.236526,84.886246 37.033226,82.941933 
	C39.157852,84.862808 41.282478,86.783684 43.740833,89.235519 
	C46.023746,90.858276 47.972935,91.950081 49.922127,93.041878 
	C49.922127,93.041878 49.951969,93.069000 49.986855,93.428177 
	C50.351494,95.126755 50.681248,96.466156 50.695618,97.893898 
	C49.584480,98.315811 48.788727,98.649391 47.713783,99.000175 
	C47.254791,99.066849 47.074989,99.116325 46.895191,99.165810 
	C46.895191,99.165810 46.944950,98.936447 47.005898,98.836166 
z"/>
<path fill="#525253" opacity="1.000000" stroke="none" 
	d="
M84.418388,28.862448 
	C81.385445,27.302528 78.798355,25.800859 75.885704,24.074280 
	C75.560150,23.849367 75.774658,23.729618 76.048836,23.705292 
	C76.581619,23.492741 76.806007,23.270037 76.996170,23.012856 
	C77.389771,22.984314 77.783379,22.955770 78.776108,22.891014 
	C79.910896,22.586679 80.446556,22.318558 80.982208,22.050438 
	C83.749115,21.494291 86.516029,20.938145 89.710060,20.533588 
	C90.400269,21.125336 90.663345,21.565493 90.944977,22.397587 
	C91.322968,24.819675 91.682411,26.849829 92.041855,28.879982 
	C89.649315,28.893555 87.256775,28.907125 84.418388,28.862448 
z"/>
<path fill="#2D1141" opacity="1.000000" stroke="none" 
	d="
M36.966492,82.596710 
	C36.236526,84.886246 35.439827,86.830566 34.348633,88.868774 
	C32.026379,85.961151 29.998617,82.959641 27.925127,79.616226 
	C29.444111,78.010529 31.008825,76.746727 32.803001,75.236198 
	C34.321560,77.410149 35.610661,79.830826 36.966492,82.596710 
z"/>
<path fill="#56297E" opacity="1.000000" stroke="none" 
	d="
M42.988892,21.989218 
	C43.484493,21.419243 43.980099,20.849268 45.030228,19.993719 
	C47.383717,18.801264 49.182686,17.894382 50.981655,16.987499 
	C50.882294,21.582815 54.929306,20.583052 57.730690,21.890888 
	C55.623081,23.955776 53.168705,25.861839 50.254791,27.719131 
	C47.526470,25.776646 45.257679,23.882933 42.988892,21.989218 
z"/>
<path fill="#B05DB4" opacity="1.000000" stroke="none" 
	d="
M52.595680,116.976250 
	C54.548634,118.781395 56.144329,120.629036 57.895180,122.791916 
	C56.087143,124.523697 54.123951,125.940231 51.788166,127.671585 
	C51.415573,127.986420 50.982998,127.970406 50.982998,127.970406 
	C49.671169,125.213860 48.359341,122.457306 47.173241,119.126160 
	C47.523151,118.314331 47.760166,118.090691 48.010010,117.880661 
	C49.419483,117.593353 50.828953,117.306046 52.595680,116.976250 
z"/>
<path fill="#95389A" opacity="1.000000" stroke="none" 
	d="
M47.890541,117.577202 
	C47.760166,118.090691 47.523151,118.314331 47.151802,118.745209 
	C43.009964,119.292351 39.015289,119.645851 34.586746,120.007568 
	C34.443493,118.910896 34.734108,117.806000 35.091728,116.353745 
	C36.097057,114.396118 37.035381,112.785851 38.487717,110.293480 
	C41.453678,112.523621 44.612373,114.898689 47.890541,117.577202 
z"/>
<path fill="#464647" opacity="1.000000" stroke="none" 
	d="
M122.674332,26.024498 
	C123.065224,29.930380 123.375145,33.693699 119.089043,36.067635 
	C117.292419,35.709068 115.847916,35.191940 114.308342,34.121796 
	C115.638771,30.351810 118.849251,27.095861 114.384781,24.008665 
	C115.526382,23.997532 116.287872,23.993532 117.049362,23.989532 
	C118.826981,24.594664 120.604599,25.199795 122.674332,26.024498 
z"/>
<path fill="#4B2575" opacity="1.000000" stroke="none" 
	d="
M51.223434,16.753359 
	C49.182686,17.894382 47.383717,18.801264 45.274773,19.846327 
	C44.443428,18.148502 43.922054,16.312498 43.186703,14.239412 
	C47.412903,12.376870 51.853077,10.751410 56.947811,9.337310 
	C58.412766,9.698312 59.223167,9.847956 60.033566,9.997599 
	C57.177448,12.171472 54.321331,14.345345 51.223434,16.753359 
z"/>
<path fill="#2E1249" opacity="1.000000" stroke="none" 
	d="
M119.944794,117.869484 
	C115.136429,119.854393 110.328072,121.839294 105.264091,123.492783 
	C106.039886,121.808357 107.071297,120.455368 108.373795,118.917969 
	C109.833420,117.185211 111.021957,115.636856 112.502655,114.022034 
	C113.518448,113.619637 114.242088,113.283730 115.082481,113.253502 
	C116.791405,114.706360 118.383560,115.853531 119.970032,117.217972 
	C119.964340,117.435234 119.944794,117.869484 119.944794,117.869484 
z"/>
<path fill="#373738" opacity="1.000000" stroke="none" 
	d="
M125.133934,40.331573 
	C126.599930,37.038494 128.266602,34.006287 129.920288,30.613216 
	C131.879868,31.274597 133.852463,32.296841 135.770416,33.884712 
	C133.799561,37.331337 131.883301,40.212330 129.967056,43.093323 
	C128.422913,42.259693 126.878761,41.426067 125.133934,40.331573 
z"/>
<path fill="#303031" opacity="1.000000" stroke="none" 
	d="
M130.126526,43.341774 
	C131.883301,40.212330 133.799561,37.331337 135.955597,34.173813 
	C137.057312,34.692451 137.919266,35.487617 139.048767,36.770981 
	C139.561203,37.500084 139.806046,37.740986 140.050903,37.981888 
	C140.050903,37.981888 140.000580,37.962471 140.001022,38.348503 
	C139.817459,42.793709 138.359482,45.929848 134.025650,46.982346 
	C133.534958,46.725880 133.044281,46.469418 132.306229,46.090622 
	C131.467911,45.175602 130.876938,44.382912 130.126526,43.341774 
z"/>
<path fill="#4C2471" opacity="1.000000" stroke="none" 
	d="
M42.707462,22.159746 
	C45.257679,23.882933 47.526470,25.776646 49.961929,27.883144 
	C48.966354,28.981140 47.804104,29.866354 46.360359,30.896992 
	C42.845722,30.224436 39.612579,29.406456 36.199905,28.304379 
	C38.155594,26.123613 40.290813,24.226944 42.707462,22.159746 
z"/>
<path fill="#5B5B5C" opacity="1.000000" stroke="none" 
	d="
M90.926422,22.005650 
	C90.663345,21.565493 90.400269,21.125336 90.080162,20.431906 
	C93.050087,20.441032 96.077042,20.703430 99.531960,20.924603 
	C101.253593,24.063108 102.547249,27.242838 103.895538,30.799658 
	C101.549187,30.745159 99.148209,30.313572 96.387108,29.447365 
	C97.309006,24.506258 95.236420,22.441635 90.926422,22.005650 
z"/>
<path fill="#2A2A2A" opacity="1.000000" stroke="none" 
	d="
M134.179413,47.248772 
	C138.359482,45.929848 139.817459,42.793709 140.026352,38.339165 
	C141.771454,40.417274 143.491653,42.890751 144.942215,45.940945 
	C142.121521,47.675537 139.570480,48.833416 137.019440,49.991295 
	C136.124008,49.165928 135.228577,48.340561 134.179413,47.248772 
z"/>
<path fill="#260D3C" opacity="1.000000" stroke="none" 
	d="
M23.989363,34.989441 
	C24.826176,36.211136 25.662987,37.432835 26.762106,39.156647 
	C27.008747,40.103630 26.993080,40.548500 26.746101,41.236755 
	C25.338703,43.654789 24.162617,45.829437 22.986530,48.004086 
	C21.542923,45.812901 20.099314,43.621716 18.397141,41.244617 
	C18.160067,40.606544 18.181555,40.154388 18.508011,39.222778 
	C19.198685,37.825867 19.584391,36.908413 19.970097,35.990955 
	C19.970098,35.990955 19.988188,35.987801 20.325399,35.923740 
	C21.771528,35.569599 22.880445,35.279522 23.989363,34.989441 
z"/>
<path fill="#582B78" opacity="1.000000" stroke="none" 
	d="
M108.102707,119.102371 
	C107.071297,120.455368 106.039886,121.808357 104.938141,123.479797 
	C104.146782,123.847961 103.425766,123.897675 102.346596,123.890068 
	C100.706047,120.766838 99.423660,117.700935 98.059647,114.289444 
	C98.232651,113.466393 98.487274,112.988914 99.211571,112.231689 
	C100.101944,111.901169 100.522644,111.850395 101.115570,112.107971 
	C103.559425,114.645004 105.831062,116.873688 108.102707,119.102371 
z"/>
<path fill="#20122A" opacity="1.000000" stroke="none" 
	d="
M51.011005,97.805565 
	C50.681248,96.466156 50.351494,95.126755 49.987511,93.448326 
	C54.027016,92.714523 58.100750,92.319733 62.594238,91.966858 
	C61.140457,93.433640 59.266930,94.858513 56.763840,96.563126 
	C54.426525,97.163773 52.718765,97.484673 51.011005,97.805565 
z"/>
<path fill="#272727" opacity="1.000000" stroke="none" 
	d="
M137.182159,50.262798 
	C139.570480,48.833416 142.121521,47.675537 144.865753,46.220230 
	C145.536850,46.198055 146.014786,46.473316 146.750854,46.845505 
	C148.633484,51.861019 145.108673,52.819370 141.335541,53.934708 
	C139.769287,52.851707 138.557083,51.693008 137.182159,50.262798 
z"/>
<path fill="#391855" opacity="1.000000" stroke="none" 
	d="
M26.977413,40.993370 
	C26.993080,40.548500 27.008747,40.103630 27.043861,39.325104 
	C28.196701,37.777439 29.330091,36.563438 30.724392,35.171722 
	C32.956112,36.722988 34.926922,38.451962 37.213058,40.452827 
	C37.528378,40.724716 37.404446,40.861961 37.314903,40.881485 
	C35.726883,41.859356 34.228401,42.817699 32.187809,43.748974 
	C30.089605,42.812393 28.533510,41.902882 26.977413,40.993370 
z"/>
<path fill="#A559B3" opacity="1.000000" stroke="none" 
	d="
M100.868996,60.083290 
	C98.454559,59.158218 96.040115,58.233147 93.311356,56.856323 
	C92.989960,56.207211 92.982880,56.009853 92.975807,55.812496 
	C92.960289,55.485027 93.093086,55.236946 93.919861,54.964828 
	C94.968658,54.205856 95.471771,53.550301 95.974892,52.894741 
	C96.417160,52.593163 96.859436,52.291584 97.972214,52.011215 
	C99.140816,52.064392 99.638908,52.096363 100.137009,52.128334 
	C100.711571,53.202045 101.286140,54.275761 101.679810,55.733742 
	C101.288948,57.439766 101.078972,58.761532 100.868996,60.083290 
z"/>
<path fill="#B37FBA" opacity="1.000000" stroke="none" 
	d="
M100.905762,60.456673 
	C101.078972,58.761532 101.288948,57.439766 101.806999,56.020912 
	C103.063622,59.339184 104.012154,62.754543 105.013931,66.594757 
	C100.347565,67.185326 102.089134,63.045361 100.905762,60.456673 
z"/>
<path fill="#2C0F46" opacity="1.000000" stroke="none" 
	d="
M100.943344,111.799622 
	C100.522644,111.850395 100.101944,111.901169 99.368591,112.007553 
	C99.306381,111.560318 99.556816,111.057472 99.930824,110.299911 
	C101.153297,108.722816 102.252190,107.400436 103.840973,106.247200 
	C104.564644,106.642097 104.831810,106.816833 105.132355,106.940552 
	C105.507774,106.922821 105.883186,106.905083 106.765991,106.791283 
	C107.558006,106.515709 107.802452,106.292252 108.006714,106.024841 
	C108.006714,106.024841 108.003937,106.000885 108.017700,106.010284 
	C109.168388,106.241478 110.305305,106.463264 111.500252,107.099609 
	C110.704338,108.013000 109.850395,108.511826 108.628792,109.040787 
	C105.821869,109.980492 103.382607,110.890060 100.943344,111.799622 
z"/>
<path fill="#232626" opacity="1.000000" stroke="none" 
	d="
M76.613213,122.812836 
	C78.557365,124.312248 80.294060,125.859840 82.101746,127.778778 
	C82.172745,128.150116 82.099625,128.176865 81.645752,128.127197 
	C79.795334,128.051682 78.398788,128.025848 77.002235,128.000000 
	C76.356018,127.247704 75.709793,126.495399 75.181030,125.211456 
	C75.530479,124.110474 75.762466,123.541138 75.994453,122.971794 
	C75.994453,122.971794 76.405754,122.861008 76.613213,122.812836 
z"/>
<path fill="#210B34" opacity="1.000000" stroke="none" 
	d="
M120.329773,117.903717 
	C119.944794,117.869484 119.964340,117.435234 120.106705,116.929276 
	C120.507980,115.616356 120.766899,114.809402 121.025818,114.002441 
	C122.776268,114.290131 124.526726,114.577812 126.649033,114.951012 
	C124.918846,116.003670 122.816795,116.970810 120.329773,117.903717 
z"/>
<path fill="#150F1E" opacity="1.000000" stroke="none" 
	d="
M130.712341,87.202477 
	C130.770584,88.801880 130.526810,90.550102 129.801590,92.711945 
	C128.237701,93.439346 127.155266,93.753143 126.063980,94.058624 
	C126.055115,94.050308 126.041328,94.034401 126.041328,94.034401 
	C127.497665,91.806702 128.953995,89.579002 130.712341,87.202477 
z"/>
<path fill="#653090" opacity="1.000000" stroke="none" 
	d="
M64.404266,19.117115 
	C63.779442,17.648428 63.479774,16.120815 63.090282,14.297255 
	C64.651474,14.818376 66.302498,15.635444 68.011696,16.832182 
	C66.956398,17.827295 65.842911,18.442741 64.404266,19.117115 
z"/>
<path fill="#653090" opacity="1.000000" stroke="none" 
	d="
M82.367035,12.831377 
	C83.152992,11.344810 84.305389,9.923624 85.457779,8.502436 
	C85.965187,9.380405 86.472588,10.258376 86.991013,11.480192 
	C85.579170,12.181610 84.156326,12.539184 82.367035,12.831377 
z"/>
<path fill="#4E137E" opacity="1.000000" stroke="none" 
	d="
M102.192932,9.575899 
	C103.078812,9.984361 103.700668,10.161080 104.322525,10.337801 
	C104.180367,10.770991 104.038208,11.204183 103.896049,11.637374 
	C101.640984,10.894602 99.385918,10.151831 97.130852,9.409060 
	C97.271408,8.958640 97.411964,8.508221 97.552521,8.057802 
	C99.011314,8.486588 100.470116,8.915373 102.192932,9.575899 
z"/>
<path fill="#B76ABA" opacity="1.000000" stroke="none" 
	d="
M33.629005,123.042992 
	C33.957542,123.070930 33.973007,123.269417 33.953598,124.121178 
	C33.602417,126.181885 33.286114,127.589317 32.987869,128.997101 
	C33.005928,128.997452 32.979218,128.972794 32.716972,129.103241 
	C31.782393,129.937805 31.110054,130.641891 30.312031,131.246140 
	C30.186348,131.146286 29.935310,130.946198 29.935310,130.946198 
	C31.062187,128.368652 32.189064,125.791092 33.629005,123.042992 
z"/>
<path fill="#20122A" opacity="1.000000" stroke="none" 
	d="
M49.774231,92.743729 
	C47.972935,91.950081 46.023746,90.858276 44.027927,89.409149 
	C45.862980,90.183075 47.744659,91.314331 49.774231,92.743729 
z"/>
<path fill="#1D0A30" opacity="1.000000" stroke="none" 
	d="
M23.978582,34.676399 
	C22.880445,35.279522 21.771528,35.569599 20.322548,35.914726 
	C20.843178,34.755856 21.703871,33.541946 22.873276,32.192474 
	C23.443926,32.825733 23.705864,33.594543 23.978582,34.676399 
z"/>
<path fill="#95389A" opacity="1.000000" stroke="none" 
	d="
M28.306427,139.816193 
	C27.405993,140.161682 26.529406,140.655899 25.597534,140.805313 
	C24.859859,140.923599 24.054338,140.618774 23.278946,140.501831 
	C23.630756,139.687286 23.982567,138.872757 24.978733,138.103180 
	C26.426624,138.378250 27.230160,138.608353 28.104908,139.082031 
	C28.219559,139.489151 28.262993,139.652664 28.306427,139.816193 
z"/>
<path fill="#D2A1D1" opacity="1.000000" stroke="none" 
	d="
M28.033695,138.838440 
	C27.230160,138.608353 26.426624,138.378250 25.331696,137.989594 
	C25.084097,137.570618 25.214155,137.364609 25.919907,137.113815 
	C26.616774,136.669479 26.824213,136.324356 27.031651,135.979218 
	C27.031651,135.979218 27.068499,135.997879 27.332781,135.940948 
	C28.054708,135.559875 28.512356,135.235733 28.985857,135.285004 
	C28.951176,136.399338 28.900639,137.140228 28.688652,138.018036 
	C28.324621,138.355286 28.160120,138.583115 28.033695,138.838440 
z"/>
<path fill="#210B34" opacity="1.000000" stroke="none" 
	d="
M128.272125,113.837860 
	C128.476562,112.703468 127.073372,109.515678 130.761658,111.630219 
	C130.143921,112.484573 129.353394,113.114410 128.272125,113.837860 
z"/>
<path fill="#150F1E" opacity="1.000000" stroke="none" 
	d="
M122.026756,100.001343 
	C120.871582,100.607086 119.716408,101.212830 118.223297,101.832565 
	C119.003731,100.902061 120.122101,99.957573 121.614006,98.997375 
	C121.987549,98.981659 122.042549,99.028976 122.034019,99.271873 
	C122.025490,99.514771 122.026756,100.001343 122.026756,100.001343 
z"/>
<path fill="#150F1E" opacity="1.000000" stroke="none" 
	d="
M121.960709,98.957253 
	C123.113007,97.412369 124.292152,95.891891 125.756317,94.202911 
	C126.041328,94.034401 126.055115,94.050308 126.023811,94.381363 
	C125.652283,95.492950 125.312050,96.273491 124.716614,97.199669 
	C123.655121,97.906532 122.848831,98.467751 122.042542,99.028976 
	C122.042549,99.028976 121.987549,98.981659 121.960709,98.957253 
z"/>
<path fill="#B76ABA" opacity="1.000000" stroke="none" 
	d="
M100.498337,52.057240 
	C99.638908,52.096363 99.140816,52.064392 98.269691,51.995632 
	C99.137032,51.406052 100.377411,50.853256 101.617783,50.300461 
	C101.365074,50.862358 101.112373,51.424252 100.498337,52.057240 
z"/>
<path fill="#150920" opacity="1.000000" stroke="none" 
	d="
M14.557192,45.102119 
	C14.865262,46.320328 14.921974,47.765827 14.953247,49.645592 
	C11.686370,48.893631 13.450565,47.052017 14.557192,45.102119 
z"/>
<path fill="#D2A1D1" opacity="1.000000" stroke="none" 
	d="
M33.951073,136.010330 
	C33.946476,136.411224 33.941879,136.812119 33.943825,137.513733 
	C33.244900,137.871246 32.539436,137.928070 31.519407,137.891113 
	C31.204840,137.797318 31.110743,137.625702 31.221386,137.359863 
	C32.205044,136.732788 33.078056,136.371567 33.951073,136.010330 
z"/>
<path fill="#1A1B1B" opacity="1.000000" stroke="none" 
	d="
M77.116409,128.261856 
	C78.398788,128.025848 79.795334,128.051682 81.609406,128.113251 
	C81.560112,128.410629 81.093292,128.672272 80.128639,129.108093 
	C79.399559,129.538849 79.168312,129.795425 78.937073,130.052002 
	C78.937073,130.052002 78.492096,130.050262 78.270088,130.041748 
	C77.775581,129.530045 77.503090,129.026886 77.116409,128.261856 
z"/>
<path fill="#1D0A30" opacity="1.000000" stroke="none" 
	d="
M19.709938,36.157349 
	C19.584391,36.908413 19.198685,37.825867 18.546604,38.885979 
	C18.670080,38.127003 19.059929,37.225376 19.709938,36.157349 
z"/>
<path fill="#B37FBA" opacity="1.000000" stroke="none" 
	d="
M28.104910,139.082031 
	C28.160120,138.583115 28.324621,138.355286 29.068773,138.008926 
	C30.110479,137.783844 30.610611,137.704773 31.110743,137.625702 
	C31.110743,137.625702 31.204840,137.797318 31.163818,137.885239 
	C30.383842,138.639313 29.644886,139.305466 28.606178,139.893906 
	C28.262993,139.652664 28.219559,139.489151 28.104910,139.082031 
z"/>
<path fill="#4E137E" opacity="1.000000" stroke="none" 
	d="
M60.004242,9.567993 
	C59.223167,9.847956 58.412766,9.698312 57.335045,9.390013 
	C57.853966,8.808797 58.640205,8.386236 59.628025,8.126600 
	C59.878048,8.572479 59.926487,8.855433 60.004242,9.567993 
z"/>
<path fill="#1D1F21" opacity="1.000000" stroke="none" 
	d="
M75.667793,122.994980 
	C75.762466,123.541138 75.530479,124.110474 75.093460,124.918518 
	C74.529396,125.159782 74.170364,125.162338 73.546356,125.180626 
	C73.967957,124.470291 74.654541,123.744225 75.667793,122.994980 
z"/>
<path fill="#B37FBA" opacity="1.000000" stroke="none" 
	d="
M66.044998,6.909479 
	C67.098854,6.623885 68.165024,6.363204 69.574509,6.294537 
	C69.917816,6.486549 69.896606,6.772993 69.506943,6.797791 
	C68.080383,6.864757 67.043488,6.906925 66.006599,6.949094 
	C66.006599,6.949094 66.057304,6.934393 66.044998,6.909479 
z"/>
<path fill="#C881C8" opacity="1.000000" stroke="none" 
	d="
M95.645683,52.964790 
	C95.471771,53.550301 94.968658,54.205856 94.135475,54.919769 
	C94.309097,54.330364 94.812782,53.682602 95.645683,52.964790 
z"/>
<path fill="#A559B3" opacity="1.000000" stroke="none" 
	d="
M28.970001,134.911575 
	C28.512356,135.235733 28.054708,135.559875 27.324593,135.959900 
	C27.329069,135.230789 27.606014,134.425781 28.250530,133.318665 
	C28.618101,133.016525 29.097954,133.021179 29.079891,133.353241 
	C29.023970,134.127625 28.986113,134.569946 28.977947,134.992340 
	C29.007641,134.972412 28.970003,134.911575 28.970001,134.911575 
z"/>
<path fill="#833A97" opacity="1.000000" stroke="none" 
	d="
M69.896606,6.772993 
	C69.896606,6.772993 69.917816,6.486549 69.937241,6.344174 
	C70.711830,6.148313 71.466988,6.094826 72.599228,6.104751 
	C72.976303,6.168162 72.988121,6.559426 72.601959,6.767226 
	C71.442734,6.907682 70.669670,6.840338 69.896606,6.772993 
z"/>
<path fill="#575858" opacity="1.000000" stroke="none" 
	d="
M116.903877,23.689106 
	C116.287872,23.993532 115.526382,23.997532 114.381248,23.753475 
	C113.999863,23.335398 114.002121,23.165373 114.004372,22.995350 
	C114.004372,22.995350 114.093834,22.900846 114.138229,22.852604 
	C115.041222,22.999132 115.899803,23.193907 116.903877,23.689106 
z"/>
<path fill="#B76ABA" opacity="1.000000" stroke="none" 
	d="
M29.097954,133.021179 
	C29.097954,133.021179 28.618101,133.016525 28.378422,133.006927 
	C28.553152,132.387863 28.967562,131.778412 29.658642,131.057587 
	C29.935310,130.946198 30.186348,131.146286 30.217049,131.517014 
	C30.152416,132.260010 30.057083,132.632278 29.984697,133.005219 
	C30.007645,133.005890 30.001661,132.960373 29.776558,132.987793 
	C29.551453,133.015228 29.097954,133.021179 29.097954,133.021179 
z"/>
<path fill="#653090" opacity="1.000000" stroke="none" 
	d="
M62.393196,20.151760 
	C62.574848,19.884319 63.057705,19.546247 63.839226,19.155945 
	C63.656727,19.429520 63.175564,19.755325 62.393196,20.151760 
z"/>
<path fill="#575858" opacity="1.000000" stroke="none" 
	d="
M80.663269,22.016422 
	C80.446556,22.318558 79.910896,22.586679 79.072311,22.889681 
	C79.294365,22.610508 79.819351,22.296457 80.663269,22.016422 
z"/>
<path fill="#9B48A4" opacity="1.000000" stroke="none" 
	d="
M49.210587,129.860123 
	C49.414017,129.558655 49.951229,129.344086 50.783173,129.091919 
	C50.566727,129.351883 50.055546,129.649445 49.210587,129.860123 
z"/>
<path fill="#2A2A2A" opacity="1.000000" stroke="none" 
	d="
M139.932556,37.749893 
	C139.806046,37.740986 139.561203,37.500084 139.184418,37.034630 
	C139.306396,37.046021 139.560303,37.281960 139.932556,37.749893 
z"/>
<path fill="#210B36" opacity="1.000000" stroke="none" 
	d="
M104.965950,106.768120 
	C104.831810,106.816833 104.564644,106.642097 104.171036,106.238457 
	C104.299606,106.201195 104.562378,106.379570 104.965950,106.768120 
z"/>
<path fill="#95389A" opacity="1.000000" stroke="none" 
	d="
M26.744087,136.052383 
	C26.824213,136.324356 26.616774,136.669479 26.098495,137.052155 
	C26.010612,136.768311 26.233566,136.446930 26.744087,136.052383 
z"/>
<path fill="#C881C8" opacity="1.000000" stroke="none" 
	d="
M92.743805,55.905426 
	C92.982880,56.009853 92.989960,56.207211 92.998550,56.700756 
	C92.716927,56.899315 92.471909,56.742226 92.150223,56.337727 
	C92.035431,56.149784 92.511795,55.998360 92.743805,55.905426 
z"/>
<path fill="#232626" opacity="1.000000" stroke="none" 
	d="
M79.186966,129.949768 
	C79.168312,129.795425 79.399559,129.538849 79.848755,129.140045 
	C79.856758,129.281052 79.646812,129.564285 79.186966,129.949768 
z"/>
<path fill="#210B36" opacity="1.000000" stroke="none" 
	d="
M107.788162,106.143105 
	C107.802452,106.292252 107.558006,106.515709 107.047607,106.805840 
	C107.037079,106.659264 107.286339,106.440903 107.788162,106.143105 
z"/>
<path fill="#150F1E" opacity="1.000000" stroke="none" 
	d="
M132.788239,82.196320 
	C132.802811,82.306030 132.622925,82.510841 132.259567,82.821251 
	C132.231323,82.702461 132.403885,82.490654 132.788239,82.196320 
z"/>
<path fill="#9B48A4" opacity="1.000000" stroke="none" 
	d="
M50.977451,128.248062 
	C50.982998,127.970406 51.415573,127.986420 51.631836,127.978142 
	C51.751961,128.278534 51.655827,128.587219 51.312714,128.984528 
	C51.034451,128.890656 51.003178,128.708176 50.977451,128.248062 
z"/>
<path fill="#561A6D" opacity="1.000000" stroke="none" 
	d="
M91.248550,90.974380 
	C91.265114,90.840179 91.535980,90.604706 92.041649,90.239105 
	C92.018585,90.363693 91.760727,90.618393 91.248550,90.974380 
z"/>
<path fill="#575858" opacity="1.000000" stroke="none" 
	d="
M76.687737,23.017521 
	C76.806007,23.270037 76.581619,23.492741 76.120071,23.805355 
	C76.071190,23.627226 76.225250,23.324707 76.687737,23.017521 
z"/>
<path fill="#5D2073" opacity="1.000000" stroke="none" 
	d="
M69.730583,88.174454 
	C69.983002,88.313126 69.960938,88.571030 69.888901,89.215347 
	C69.711319,89.165741 69.583710,88.729713 69.730583,88.174454 
z"/>
<path fill="#150F1E" opacity="1.000000" stroke="none" 
	d="
M131.772430,84.061188 
	C131.781448,84.187241 131.572662,84.448807 131.169952,84.871246 
	C131.168915,84.753639 131.361771,84.475174 131.772430,84.061188 
z"/>
<path fill="#150920" opacity="1.000000" stroke="none" 
	d="
M15.783229,43.097275 
	C15.800733,43.227318 15.589920,43.461967 15.189137,43.842213 
	C15.119310,43.682735 15.304559,43.420753 15.783229,43.097275 
z"/>
<path fill="#190729" opacity="1.000000" stroke="none" 
	d="
M24.805992,68.045029 
	C25.233982,71.065102 25.661972,74.085167 26.136341,77.511475 
	C18.382826,75.213989 13.994544,73.009499 15.010264,58.447914 
	C16.291794,59.105949 17.568552,60.224232 18.924324,62.076794 
	C18.590033,67.158318 21.077364,68.289757 24.805992,68.045029 
z"/>
<path fill="#250E32" opacity="1.000000" stroke="none" 
	d="
M37.915894,98.489403 
	C37.375237,98.399063 36.717686,98.029289 35.921001,97.384186 
	C36.454243,97.475891 37.126621,97.842926 37.915894,98.489403 
z"/>
<path fill="#000000" opacity="1.000000" stroke="none" 
	d="
M15.517910,80.495392 
	C15.526413,80.519409 15.509406,80.471367 15.517910,80.495392 
z"/>
<path fill="#4D4E4E" opacity="1.000000" stroke="none" 
	d="
M113.669617,23.049526 
	C114.002121,23.165373 113.999863,23.335398 114.001144,23.760609 
	C118.849251,27.095861 115.638771,30.351810 114.050949,33.908585 
	C112.412010,33.770271 110.935394,33.292156 109.181549,32.646832 
	C109.724747,29.941666 110.452759,27.367559 111.422638,24.888063 
	C111.709007,24.155962 112.678444,23.691055 113.669617,23.049526 
z"/>
<path fill="#656566" opacity="1.000000" stroke="none" 
	d="
M90.944977,22.397587 
	C95.236420,22.441635 97.309006,24.506258 95.993828,29.346256 
	C94.852730,29.525967 93.744804,29.372169 92.339363,29.049179 
	C91.682411,26.849829 91.322968,24.819675 90.944977,22.397587 
z"/>
<path fill="#180528" opacity="1.000000" stroke="none" 
	d="
M124.971825,97.054024 
	C125.312050,96.273491 125.652283,95.492950 126.032669,94.389679 
	C127.155266,93.753143 128.237701,93.439346 129.652252,93.060272 
	C132.768585,93.951843 135.552795,94.908699 138.697693,95.942627 
	C138.419891,97.786560 137.781387,99.553436 136.711136,101.589363 
	C132.510193,100.256943 128.741013,98.655487 124.971825,97.054024 
z"/>
<path fill="#210B34" opacity="1.000000" stroke="none" 
	d="
M124.716614,97.199669 
	C128.741013,98.655487 132.510193,100.256943 136.630875,101.933319 
	C136.197708,103.224159 135.413040,104.440079 134.386856,105.845718 
	C131.812454,104.957726 129.443573,103.950180 127.159309,102.777733 
	C125.626709,101.991089 124.214066,100.970726 122.387253,100.028137 
	C122.026756,100.001343 122.025490,99.514771 122.034012,99.271866 
	C122.848831,98.467751 123.655121,97.906532 124.716614,97.199669 
z"/>
<path fill="#0D0D0C" opacity="1.000000" stroke="none" 
	d="
M140.404144,69.995834 
	C139.368637,68.565323 138.744980,67.122993 138.411453,65.316696 
	C140.821747,63.950069 142.941925,62.947399 145.062088,61.944725 
	C146.291382,64.084747 147.520660,66.224762 148.896408,68.672028 
	C146.300583,69.314178 143.558289,69.649086 140.404144,69.995834 
z"/>
<path fill="#7D2D8A" opacity="1.000000" stroke="none" 
	d="
M46.764572,99.323799 
	C47.074989,99.116325 47.254791,99.066849 47.992577,99.207962 
	C54.608780,102.079590 57.715645,107.236824 60.019226,113.068016 
	C58.580162,113.714005 57.141098,114.359985 55.277287,114.693649 
	C53.262691,112.115356 51.560204,109.918571 50.114124,107.564293 
	C48.616875,105.126709 47.368336,102.536369 46.011009,100.012840 
	C46.239967,99.860817 46.447613,99.683800 46.764572,99.323799 
z"/>
<path fill="#843190" opacity="1.000000" stroke="none" 
	d="
M45.684269,100.085114 
	C47.368336,102.536369 48.616875,105.126709 50.114124,107.564293 
	C51.560204,109.918571 53.262691,112.115356 54.929554,114.727722 
	C54.522949,115.347672 54.039333,115.621216 53.278946,115.950623 
	C50.045223,112.550964 47.175617,109.015335 44.103302,105.665634 
	C41.704880,103.050659 42.211449,101.372688 45.684269,100.085114 
z"/>
<path fill="#4E137E" opacity="1.000000" stroke="none" 
	d="
M69.506943,6.797791 
	C70.669670,6.840338 71.442734,6.907682 72.605629,6.962913 
	C70.866707,7.096748 68.737946,7.242697 66.307892,7.168870 
	C67.043488,6.906925 68.080383,6.864757 69.506943,6.797791 
z"/>
<path fill="#653090" opacity="1.000000" stroke="none" 
	d="
M72.699310,12.445813 
	C72.845169,12.846761 72.795959,13.195333 72.746750,13.543904 
	C72.480629,13.467529 72.214516,13.391154 71.948395,13.314779 
	C72.133682,13.007666 72.318962,12.700552 72.699310,12.445813 
z"/>
<path fill="#C881C8" opacity="1.000000" stroke="none" 
	d="
M31.221386,137.359863 
	C30.610611,137.704773 30.110479,137.783844 29.230225,137.872025 
	C28.900639,137.140228 28.951176,136.399338 28.985859,135.285004 
	C28.970003,134.911575 29.007641,134.972412 29.184999,134.781830 
	C29.575459,134.047607 29.788559,133.503998 30.001659,132.960373 
	C30.001661,132.960373 30.007645,133.005890 30.306038,132.907074 
	C31.396025,131.529755 32.187622,130.251282 32.979218,128.972794 
	C32.979218,128.972794 33.005928,128.997452 33.246826,128.765884 
	C34.015160,127.009247 34.542595,125.484184 35.070030,123.959114 
	C36.691231,126.334938 38.312431,128.710754 39.997005,131.179459 
	C37.700226,133.132446 36.142097,134.457352 34.267525,135.896286 
	C33.078056,136.371567 32.205044,136.732788 31.221386,137.359863 
z"/>
<path fill="#D2A1D1" opacity="1.000000" stroke="none" 
	d="
M34.810772,123.979111 
	C34.542595,125.484184 34.015160,127.009247 33.228767,128.765533 
	C33.286114,127.589317 33.602417,126.181885 33.977074,124.418884 
	C34.207455,124.041924 34.379482,124.020523 34.810772,123.979111 
z"/>
<path fill="#732882" opacity="1.000000" stroke="none" 
	d="
M60.341785,113.045975 
	C57.715645,107.236824 54.608780,102.079590 48.271767,99.190750 
	C48.788727,98.649391 49.584480,98.315811 50.695618,97.893898 
	C52.718765,97.484673 54.426525,97.163773 56.503120,96.771744 
	C59.539986,100.616554 62.208012,104.532478 64.956917,108.801453 
	C64.134018,110.238785 63.230247,111.323059 62.139057,112.656380 
	C61.522541,112.944931 61.093445,112.984436 60.341785,113.045975 
z"/>
<path fill="#111011" opacity="1.000000" stroke="none" 
	d="
M144.980072,61.626953 
	C142.941925,62.947399 140.821747,63.950069 138.343994,64.979424 
	C137.035507,63.228134 136.084595,61.450165 135.066650,59.333420 
	C137.098801,58.374920 139.197983,57.755196 141.666595,57.055965 
	C142.990036,58.420704 143.944031,59.864944 144.980072,61.626953 
z"/>
<path fill="#2D1141" opacity="1.000000" stroke="none" 
	d="
M121.010162,113.597504 
	C120.766899,114.809402 120.507980,115.616356 120.112396,116.712006 
	C118.383560,115.853531 116.791405,114.706360 115.162964,112.910782 
	C116.059998,109.857162 116.993317,107.451958 117.926628,105.046753 
	C118.949257,107.762024 119.971886,110.477287 121.010162,113.597504 
z"/>
<path fill="#472166" opacity="1.000000" stroke="none" 
	d="
M117.585892,105.105270 
	C116.993317,107.451958 116.059998,109.857162 115.046204,112.605087 
	C114.242088,113.283730 113.518448,113.619637 112.189972,113.836670 
	C110.722237,112.148750 109.859352,110.579697 108.996460,109.010651 
	C109.850395,108.511826 110.704338,108.013000 111.774490,107.316620 
	C113.742188,106.467316 115.493675,105.815552 117.585892,105.105270 
z"/>
<path fill="#31134A" opacity="1.000000" stroke="none" 
	d="
M26.746101,41.236755 
	C28.533510,41.902882 30.089605,42.812393 31.918068,43.945736 
	C30.336756,47.992599 28.483074,51.815632 26.256042,55.617134 
	C24.903231,54.062134 23.923769,52.528660 22.944307,50.995190 
	C22.956673,50.247360 22.969038,49.499527 22.983967,48.377892 
	C24.162617,45.829437 25.338703,43.654789 26.746101,41.236755 
z"/>
<path fill="#260D3C" opacity="1.000000" stroke="none" 
	d="
M22.623053,51.157291 
	C23.923769,52.528660 24.903231,54.062134 26.063326,55.914917 
	C25.967625,57.610813 25.691292,58.987392 25.255138,60.679535 
	C20.923780,58.705410 19.689301,55.567741 22.623053,51.157291 
z"/>
<path fill="#1F0A31" opacity="1.000000" stroke="none" 
	d="
M24.845699,67.639267 
	C21.077364,68.289757 18.590033,67.158318 19.001133,62.405006 
	C20.697886,62.643177 22.396843,63.287411 24.427933,63.957008 
	C24.801847,65.066086 24.843628,66.149796 24.845699,67.639267 
z"/>
<path fill="#311452" opacity="1.000000" stroke="none" 
	d="
M32.398071,30.990450 
	C31.822861,29.405249 28.593266,27.549555 32.687866,26.025316 
	C33.573414,26.507120 34.143604,27.017582 34.868744,27.774343 
	C34.243603,28.970762 33.463505,29.920881 32.398071,30.990450 
z"/>
<path fill="#512670" opacity="1.000000" stroke="none" 
	d="
M108.628792,109.040787 
	C109.859352,110.579697 110.722237,112.148750 111.897812,113.903152 
	C111.021957,115.636856 109.833420,117.185211 108.373795,118.917969 
	C105.831062,116.873688 103.559425,114.645004 101.115570,112.107971 
	C103.382607,110.890060 105.821869,109.980492 108.628792,109.040787 
z"/>
<path fill="#D2A1D1" opacity="1.000000" stroke="none" 
	d="
M32.716972,129.103241 
	C32.187622,130.251282 31.396025,131.529755 30.283089,132.906403 
	C30.057083,132.632278 30.152416,132.260010 30.342731,131.616867 
	C31.110054,130.641891 31.782393,129.937805 32.716972,129.103241 
z"/>
<path fill="#D2A1D1" opacity="1.000000" stroke="none" 
	d="
M29.776556,132.987793 
	C29.788559,133.503998 29.575459,134.047607 29.155306,134.801758 
	C28.986113,134.569946 29.023970,134.127625 29.079891,133.353241 
	C29.097954,133.021179 29.551453,133.015228 29.776556,132.987793 
z"/>
</svg>